<svg width="495" height="220" viewBox="0 0 495 220" xmlns="http://www.w3.org/2000/svg">
<defs><style>text { font-family: -apple-system, BlinkMacSystemFont, "Segoe UI", Roboto, Helvetica, Arial, sans-serif; }.mono { font-family: "ui-monospace", "SFMono-Regular", "SF Mono", "JetBrains Mono", monospace; }</style></defs>
<rect width="495" height="220" rx="10" fill="#0a0a0a"/>
<rect x="0.5" y="0.5" width="494" height="219" rx="9.5" fill="none" stroke="#7f1d1d"/>
<rect width="495" height="38" rx="10" fill="#1c0a0a"/>
<rect y="28" width="495" height="10" fill="#1c0a0a"/>
<text x="18" y="24" font-size="11" fill="#a3a3a3" font-weight="600" letter-spacing="1.5" class="mono">LEETCODE  ›  CONTESTS</text>
<text x="477" y="24" font-size="11" fill="#f87171" font-weight="600" text-anchor="end" class="mono">@mohammed_afeefuddin</text>
<line x1="0" y1="38" x2="495" y2="38" stroke="#7f1d1d"/>
<circle cx="82" cy="112" r="54" fill="none" stroke="#3f1f1f" stroke-width="10"/><circle cx="82" cy="112" r="54" fill="none" stroke="#f87171" stroke-width="10" stroke-dasharray="120.02 219.27" stroke-linecap="round" transform="rotate(-90 82 112)"/>
<circle cx="82" cy="112" r="40" fill="none" stroke="#3f1f1f" stroke-width="4"/><circle cx="82" cy="112" r="40" fill="none" stroke="#dc2626" stroke-width="4" stroke-dasharray="21.45 229.87" stroke-linecap="round" transform="rotate(-90 82 112)"/>
<text x="82" y="105" text-anchor="middle" font-size="19" font-weight="700" fill="#fecaca" class="mono">1415</text>
<text x="82" y="124" text-anchor="middle" font-size="9" fill="#a3a3a3" letter-spacing="1" class="mono">RATING</text>
<text x="168" y="51" font-size="10" fill="#a3a3a3" class="mono">Easy</text><rect x="168" y="56" width="230" height="8" rx="4" fill="#3f1f1f"/><rect x="168" y="56" width="157.1" height="8" rx="4" fill="#86efac"/><text x="406" y="64" font-size="10" fill="#fecaca" font-weight="600" class="mono">56</text>
<text x="168" y="89" font-size="10" fill="#a3a3a3" class="mono">Medium</text><rect x="168" y="94" width="230" height="8" rx="4" fill="#3f1f1f"/><rect x="168" y="94" width="53.3" height="8" rx="4" fill="#fbbf24"/><text x="406" y="102" font-size="10" fill="#fecaca" font-weight="600" class="mono">19</text>
<text x="168" y="127" font-size="10" fill="#a3a3a3" class="mono">Hard</text><rect x="168" y="132" width="230" height="8" rx="4" fill="#3f1f1f"/><rect x="168" y="132" width="19.6" height="8" rx="4" fill="#dc2626"/><text x="406" y="140" font-size="10" fill="#fecaca" font-weight="600" class="mono">7</text>
<rect x="12" y="163" width="471" height="26" rx="6" fill="#1c0a0a"/>
<text x="84" y="174" text-anchor="middle" font-size="11" font-weight="700" fill="#f87171" class="mono">#661,742</text>
<text x="84" y="186" text-anchor="middle" font-size="9" fill="#a3a3a3" class="mono">Global Rank</text>
<text x="198" y="174" text-anchor="middle" font-size="11" font-weight="700" fill="#f87171" class="mono">Top 76.8%</text>
<text x="198" y="186" text-anchor="middle" font-size="9" fill="#a3a3a3" class="mono">Percentile</text>
<text x="312" y="174" text-anchor="middle" font-size="11" font-weight="700" fill="#f87171" class="mono">1</text>
<text x="312" y="186" text-anchor="middle" font-size="9" fill="#a3a3a3" class="mono">Contests</text>
<text x="416" y="174" text-anchor="middle" font-size="11" font-weight="700" fill="#f87171" class="mono">82</text>
<text x="416" y="186" text-anchor="middle" font-size="9" fill="#a3a3a3" class="mono">Solved</text>
<line x1="0" y1="190" x2="495" y2="190" stroke="#7f1d1d"/>
<text x="18" y="208" font-size="10" fill="#a3a3a3" class="mono">leetcode.com/u/mohammed_afeefuddin</text>
</svg>