<svg width="495" height="195" viewBox="0 0 495 195" xmlns="http://www.w3.org/2000/svg">
<defs><style>text { font-family: -apple-system, BlinkMacSystemFont, "Segoe UI", Roboto, Helvetica, Arial, sans-serif; }.mono { font-family: "ui-monospace", "SFMono-Regular", "SF Mono", "JetBrains Mono", monospace; }</style></defs>
<rect width="495" height="195" rx="10" fill="#0a0a0a"/>
<rect x="0.5" y="0.5" width="494" height="194" rx="9.5" fill="none" stroke="#7f1d1d"/>
<rect width="495" height="38" rx="10" fill="#1c0a0a"/>
<rect y="28" width="495" height="10" fill="#1c0a0a"/>
<text x="18" y="24" font-size="11" fill="#a3a3a3" font-weight="600" letter-spacing="1.5" class="mono">LEETCODE  ›  MAIN</text>
<text x="477" y="24" font-size="11" fill="#f87171" font-weight="600" text-anchor="end" class="mono">@mohammed_afeefuddin</text>
<line x1="0" y1="38" x2="495" y2="38" stroke="#7f1d1d"/>
<circle cx="82" cy="103" r="54" fill="none" stroke="#3f1f1f" stroke-width="10"/><circle cx="82" cy="103" r="54" fill="none" stroke="#f87171" stroke-width="10" stroke-dasharray="7.85 331.44" stroke-linecap="round" transform="rotate(-90 82 103)"/>
<circle cx="82" cy="103" r="40" fill="none" stroke="#3f1f1f" stroke-width="4"/><circle cx="82" cy="103" r="40" fill="none" stroke="#86efac" stroke-width="4" stroke-dasharray="170.65 80.67" stroke-linecap="round" transform="rotate(-90 82 103)"/>
<text x="82" y="97" text-anchor="middle" font-size="21" font-weight="700" fill="#fecaca" class="mono">81</text>
<text x="82" y="115" text-anchor="middle" font-size="9" fill="#a3a3a3" letter-spacing="1" class="mono">SOLVED</text>
<text x="168" y="55" font-size="10" fill="#a3a3a3" class="mono">Easy</text><rect x="168" y="60" width="268" height="8" rx="4" fill="#3f1f1f"/><rect x="168" y="60" width="182.0" height="8" rx="4" fill="#86efac"/><text x="444" y="68" font-size="10" fill="#fecaca" font-weight="600" class="mono">55</text>
<text x="168" y="93" font-size="10" fill="#a3a3a3" class="mono">Medium</text><rect x="168" y="98" width="268" height="8" rx="4" fill="#3f1f1f"/><rect x="168" y="98" width="62.9" height="8" rx="4" fill="#fbbf24"/><text x="444" y="106" font-size="10" fill="#fecaca" font-weight="600" class="mono">19</text>
<text x="168" y="131" font-size="10" fill="#a3a3a3" class="mono">Hard</text><rect x="168" y="136" width="268" height="8" rx="4" fill="#3f1f1f"/><rect x="168" y="136" width="23.2" height="8" rx="4" fill="#dc2626"/><text x="444" y="144" font-size="10" fill="#fecaca" font-weight="600" class="mono">7</text>
<line x1="0" y1="165" x2="495" y2="165" stroke="#7f1d1d"/>
<text x="18" y="183" font-size="10" fill="#a3a3a3" class="mono">leetcode.com/u/mohammed_afeefuddin</text>
</svg>